<svg width="43" height="35" viewBox="0 0 43 35" fill="none" xmlns="http://www.w3.org/2000/svg">
<path fill-rule="evenodd" clip-rule="evenodd" d="M39.6789 30.0576C39.6789 31.2385 38.4938 32.2046 37.0336 32.2046H5.29052C3.83034 32.2046 2.64526 31.2385 2.64526 30.0576V4.29395C2.64526 3.11311 3.83034 2.14697 5.29052 2.14697H37.0336C38.4938 2.14697 39.6789 3.11311 39.6789 4.29395V30.0576ZM37.0336 0H5.29052C2.36883 0 0 1.92154 0 4.29395V30.0576C0 32.43 2.36883 34.3516 5.29052 34.3516H37.0336C39.9553 34.3516 42.3242 32.43 42.3242 30.0576V4.29395C42.3242 1.92154 39.9553 0 37.0336 0ZM29.0979 16.1023H22.4847V10.7349C22.4847 10.1445 21.8922 9.66138 21.1621 9.66138C20.432 9.66138 19.8394 10.1445 19.8394 10.7349V16.1023H13.2263C12.4962 16.1023 11.9037 16.5854 11.9037 17.1758C11.9037 17.7662 12.4962 18.2493 13.2263 18.2493H19.8394V23.6167C19.8394 24.2071 20.432 24.6902 21.1621 24.6902C21.8922 24.6902 22.4847 24.2071 22.4847 23.6167V18.2493H29.0979C29.8279 18.2493 30.4205 17.7662 30.4205 17.1758C30.4205 16.5854 29.8279 16.1023 29.0979 16.1023Z" fill="#1785de"/>
</svg>
