<svg width="41" height="43" viewBox="0 0 41 43" fill="none" xmlns="http://www.w3.org/2000/svg">
<path d="M10.5414 42.4516C7.84893 42.4516 5.32474 41.3903 3.47367 39.4446C1.62259 37.4989 0.612915 34.8457 0.612915 32.0156C0.612915 29.1855 1.62259 26.5322 3.47367 24.5865L9.86829 17.865L13.2339 21.4027L17.9457 16.45L20.3016 18.9263L15.5898 23.879L18.2823 26.7091L22.9941 21.7564L25.35 24.2328L20.6382 29.1855L24.0038 32.7231L17.7774 39.4446C15.7581 41.2134 13.2339 42.4516 10.5414 42.4516ZM9.86829 22.8177L5.99786 26.886C4.65162 28.301 3.97851 30.0699 3.97851 31.8387C3.97851 33.6075 4.65162 35.3763 5.99786 36.7914C8.52205 39.4446 12.8973 39.4446 15.4215 36.7914L19.2919 32.5462L9.86829 22.8177ZM31.7446 24.5865L17.6091 9.72849L23.8355 3.00699C25.6866 1.06129 28.379 0 30.9032 0C33.4274 0 35.9516 1.06129 37.971 3.00699C39.9903 4.95268 41 7.60591 41 10.436C41 13.2661 39.9903 15.9193 38.1392 17.865L31.7446 24.5865ZM22.4893 9.72849L31.7446 19.457L35.6151 15.3887C36.9613 13.9736 37.6344 12.3817 37.6344 10.436C37.6344 8.6672 36.9613 6.89838 35.6151 5.48333C33.0909 2.8301 28.8839 2.8301 26.1914 5.48333L22.4893 9.72849Z" fill="#1785de" stroke="#1785de" stroke-width="0.00137903"/>
</svg>
