<svg width="39" height="34" viewBox="0 0 39 34" fill="none" xmlns="http://www.w3.org/2000/svg">
<path d="M36.849 17.3409V19.7312C36.849 25.861 36.849 28.9261 34.7662 30.8303C32.6834 32.7347 29.331 32.7347 22.6265 32.7347H15.5152C8.81063 32.7347 5.45836 32.7347 3.3755 30.8303C1.29266 28.9261 1.29266 25.861 1.29266 19.7312V17.3409C1.29266 13.7448 1.29266 11.9467 2.21571 10.4562C3.13875 8.96563 4.8251 8.04052 8.19777 6.19036L11.7534 4.23981C15.3186 2.28404 17.1012 1.30615 19.0709 1.30615C21.0405 1.30615 22.8231 2.28404 26.3884 4.23981L29.944 6.19034C33.3167 8.04052 35.003 8.96563 35.926 10.4562" stroke="#1785de" stroke-width="2.5" stroke-linecap="round"/>
<path d="M24.4043 26.4492H13.7374" stroke="#1785de" stroke-width="2.5" stroke-linecap="round"/>
</svg>
