<svg width="39" height="30" viewBox="0 0 39 30" fill="none" xmlns="http://www.w3.org/2000/svg">
<path fill-rule="evenodd" clip-rule="evenodd" d="M37.6071 18.4285H1.39286C0.622607 18.4285 0 18.9405 0 19.5714C0 20.2034 0.622607 20.7142 1.39286 20.7142H37.6071C38.3774 20.7142 39 20.2034 39 19.5714C39 18.9405 38.3774 18.4285 37.6071 18.4285ZM22.2857 27.5714H1.39286C0.622607 27.5714 0 28.0822 0 28.7142C0 29.3462 0.622607 29.8571 1.39286 29.8571H22.2857C23.056 29.8571 23.6786 29.3462 23.6786 28.7142C23.6786 28.0822 23.056 27.5714 22.2857 27.5714ZM1.39286 2.42854H37.6071C38.3774 2.42854 39 1.91768 39 1.28568C39 0.654822 38.3774 0.142822 37.6071 0.142822H1.39286C0.622607 0.142822 0 0.654822 0 1.28568C0 1.91768 0.622607 2.42854 1.39286 2.42854ZM1.39286 11.5714H26.4643C27.2345 11.5714 27.8571 11.0605 27.8571 10.4285C27.8571 9.79768 27.2345 9.28568 26.4643 9.28568H1.39286C0.622607 9.28568 0 9.79768 0 10.4285C0 11.0605 0.622607 11.5714 1.39286 11.5714Z" fill="#1785de"/>
</svg>
