<svg width="56" height="54" viewBox="0 0 56 54" fill="none" xmlns="http://www.w3.org/2000/svg">
<g opacity="0.2">
<path d="M14.6486 40.6913L26.1706 4.14951C26.2675 3.84209 26.4486 3.54353 26.6896 3.29372C26.9307 3.04391 27.2202 2.85476 27.5195 2.75154C27.8187 2.64833 28.1135 2.63597 28.3645 2.71612C28.6154 2.79626 28.8105 2.9651 28.9236 3.20006L35.5059 16.8661C35.6343 17.1327 35.8676 17.3131 36.1661 17.3768L51.4728 20.6444C51.736 20.7006 51.9493 20.8477 52.0843 21.0661C52.2192 21.2845 52.2694 21.5637 52.228 21.8665C52.1867 22.1692 52.0558 22.4811 51.8529 22.7604C51.65 23.0397 51.3848 23.2732 51.0926 23.4295L16.3612 42.0163C16.1061 42.1528 15.8404 42.2252 15.5914 42.2261C15.3424 42.227 15.1192 42.1564 14.9448 42.0214C14.7703 41.8864 14.6509 41.6921 14.5988 41.4583C14.5468 41.2245 14.564 40.9598 14.6486 40.6913Z" fill="#1785de" stroke="#1785de" stroke-width="0.00109167"/>
</g>
<path d="M13.3305 40.5805L24.63 4.3034C24.8202 3.69302 25.179 3.0999 25.6585 2.60331C26.1381 2.10672 26.7155 1.73032 27.3136 1.5244C27.9117 1.31848 28.5021 1.29286 29.0057 1.45097C29.5094 1.60907 29.9024 1.94337 30.1322 2.40918L36.8143 15.9561L52.166 19.1698C52.5807 19.2575 52.9362 19.457 53.2025 19.7516C53.4689 20.0462 53.6384 20.4273 53.6969 20.8631C53.7554 21.2988 53.7012 21.7765 53.5387 22.2561C53.3763 22.7357 53.1105 23.2034 52.7634 23.6199C52.3888 24.0652 51.9333 24.4365 51.4408 24.698L16.7788 43.2033C16.2695 43.4751 15.7382 43.6198 15.2395 43.6226C14.7408 43.6253 14.2928 43.4859 13.9415 43.2187C13.5903 42.9515 13.3485 42.5663 13.2411 42.1026C13.1337 41.6388 13.1646 41.1135 13.3305 40.5805ZM50.7791 22.1185L35.8795 18.9994L27.9393 28.4635C27.6507 28.8075 27.2697 29.0583 26.8804 29.1607C26.491 29.263 26.125 29.2085 25.863 29.0092C25.601 28.8099 25.4644 28.4821 25.4832 28.0979C25.502 27.7137 25.6748 27.3045 25.9634 26.9604L33.9036 17.4965L27.4171 4.34883L16.1183 40.6241L50.7791 22.1185Z" fill="#1785de" stroke="#1785de" stroke-width="0.00109167"/>
</svg>
