<svg width="56" height="54" viewBox="0 0 56 54" fill="none" xmlns="http://www.w3.org/2000/svg">
<g opacity="0.2">
<path d="M43.5439 15.7683L25.8516 49.7542C25.7027 50.0401 25.4725 50.3027 25.1918 50.5069C24.911 50.711 24.5931 50.847 24.2804 50.8967C23.9677 50.9464 23.6753 50.9074 23.4421 50.7849C23.2089 50.6624 23.0461 50.4622 22.9754 50.2112L18.8662 35.6097C18.7861 35.3249 18.5877 35.1067 18.3048 34.9921L3.79803 29.1162C3.54862 29.0152 3.36409 28.8333 3.2691 28.5948C3.17412 28.3563 3.17321 28.0726 3.26649 27.7816C3.35978 27.4906 3.54281 27.2062 3.79113 26.9663C4.03945 26.7265 4.34123 26.5427 4.65613 26.4394L42.0874 14.1661C42.3623 14.076 42.6366 14.0508 42.8819 14.0931C43.1273 14.1354 43.3348 14.2438 43.4832 14.407C43.6316 14.5702 43.7154 14.7824 43.7261 15.0217C43.7368 15.2609 43.6739 15.5187 43.5439 15.7683Z" fill="#1785de" stroke="#1785de" stroke-width="0.00109167"/>
</g>
<path d="M44.8228 16.1063L27.3955 49.8702C27.1022 50.4382 26.6459 50.96 26.0874 51.3658C25.5289 51.7716 24.8949 52.042 24.2701 52.1409C23.6453 52.2399 23.0595 52.1626 22.5909 51.9194C22.1223 51.6763 21.7934 51.2788 21.648 50.7802L17.4197 36.2787L2.85938 30.448C2.46615 30.2896 2.15076 30.0314 1.93961 29.6951C1.72846 29.3587 1.6277 28.9539 1.64575 28.5147C1.66381 28.0754 1.80016 27.6144 2.04339 27.1703C2.28662 26.7261 2.62965 26.3117 3.04378 25.9618C3.49006 25.5883 4.00304 25.3018 4.5335 25.1297L41.8823 12.9246C42.431 12.7453 42.9794 12.6951 43.471 12.779C43.9626 12.8629 44.3796 13.078 44.6792 13.4021C44.9787 13.7262 45.1499 14.1476 45.1751 14.6229C45.2004 15.0982 45.0787 15.6103 44.8228 16.1063ZM4.73726 27.785L18.8688 33.444L28.3318 25.5025C28.6758 25.2138 29.0945 25.0329 29.4957 24.9998C29.897 24.9666 30.2479 25.0838 30.4714 25.3256C30.6948 25.5673 30.7724 25.9139 30.6871 26.289C30.6019 26.6641 30.3607 27.0371 30.0167 27.3258L20.5538 35.2672L24.6587 49.3414L42.0849 15.5793L4.73726 27.785Z" fill="#1785de" stroke="#1785de" stroke-width="0.00109167"/>
</svg>
